<?xml version="1.0" standalone="no"?>
<!DOCTYPE svg PUBLIC "-//W3C//DTD SVG 20010904//EN"
 "http://www.w3.org/TR/2001/REC-SVG-20010904/DTD/svg10.dtd">
<svg version="1.0" xmlns="http://www.w3.org/2000/svg"
 width="304.000000pt" height="304.000000pt" viewBox="0 0 304.000000 304.000000"
 preserveAspectRatio="xMidYMid meet">
<metadata>
Created by potrace 1.14, written by Peter Selinger 2001-2017
</metadata>
<g transform="translate(0.000000,304.000000) scale(0.100000,-0.100000)"
fill="#000000" stroke="none">
<path d="M821 2005 c-56 -17 -103 -64 -133 -129 -22 -49 -23 -63 -26 -324 -4
-303 2 -343 58 -420 45 -62 97 -85 205 -90 118 -5 168 8 221 62 54 53 76 125
72 228 l-3 73 -95 0 -95 0 -5 -92 c-4 -71 -9 -96 -25 -113 -28 -30 -81 -24
-109 13 -20 27 -21 40 -21 310 0 155 3 294 7 308 8 26 44 49 79 49 11 0 31
-11 44 -25 23 -22 25 -32 25 -110 l0 -85 101 0 101 0 -4 98 c-3 74 -9 107 -26
138 -27 53 -81 100 -129 113 -53 15 -189 12 -242 -4z"/>
<path d="M1465 1988 c-6 -17 -185 -907 -185 -919 0 -7 189 -14 191 -6 0 1 8
45 17 97 l18 95 76 3 c87 3 77 15 99 -120 l12 -78 95 0 94 0 -5 27 c-3 15 -45
227 -93 470 l-89 443 -113 0 c-81 0 -114 -3 -117 -12z m169 -570 c5 -28 5 -28
-49 -28 -32 0 -55 4 -55 11 0 15 39 268 47 304 5 22 12 -7 29 -115 12 -80 25
-157 28 -172z"/>
<path d="M1860 1930 l0 -70 75 0 75 0 0 -400 0 -400 100 0 100 0 2 398 3 397
73 3 72 3 0 69 0 70 -250 0 -250 0 0 -70z"/>
</g>
</svg>
