<svg version="1.0" xmlns="http://www.w3.org/2000/svg" width="405.333" height="405.333" viewBox="0 0 304 304"><path d="M82.1 103.5c-5.6 1.7-10.3 6.4-13.3 12.9-2.2 4.9-2.3 6.3-2.6 32.4-.4 30.3.2 34.3 5.8 42 4.5 6.2 9.7 8.5 20.5 9 11.8.5 16.8-.8 22.1-6.2 5.4-5.3 7.6-12.5 7.2-22.8l-.3-7.3h-19l-.5 9.2c-.4 7.1-.9 9.6-2.5 11.3-2.8 3-8.1 2.4-10.9-1.3-2-2.7-2.1-4-2.1-31 0-15.5.3-29.4.7-30.8.8-2.6 4.4-4.9 7.9-4.9 1.1 0 3.1 1.1 4.4 2.5 2.3 2.2 2.5 3.2 2.5 11v8.5h20.2l-.4-9.8c-.3-7.4-.9-10.7-2.6-13.8-2.7-5.3-8.1-10-12.9-11.3-5.3-1.5-18.9-1.2-24.2.4zM146.5 105.2c-.6 1.7-18.5 90.7-18.5 91.9 0 .7 18.9 1.4 19.1.6 0-.1.8-4.5 1.7-9.7l1.8-9.5 7.6-.3c8.7-.3 7.7-1.5 9.9 12l1.2 7.8h18.9l-.5-2.7c-.3-1.5-4.5-22.7-9.3-47l-8.9-44.3h-11.3c-8.1 0-11.4.3-11.7 1.2zm16.9 57c.5 2.8.5 2.8-4.9 2.8-3.2 0-5.5-.4-5.5-1.1 0-1.5 3.9-26.8 4.7-30.4.5-2.2 1.2.7 2.9 11.5 1.2 8 2.5 15.7 2.8 17.2zM186 111v7h15v80h20l.2-39.8.3-39.7 7.3-.3 7.2-.3V104h-50v7z"/></svg>